<?xml version="1.0" encoding="UTF-8" standalone="no"?>
<!DOCTYPE svg PUBLIC "-//W3C//DTD SVG 1.1//EN"
 "http://www.w3.org/Graphics/SVG/1.1/DTD/svg11.dtd">
<!-- Generated by graphviz version 2.40.1 (20161225.0304)
 -->
<!-- Title: dependencies Pages: 1 -->
<svg width="937pt" height="211pt"
 viewBox="0.00 0.00 937.00 211.00" xmlns="http://www.w3.org/2000/svg" xmlns:xlink="http://www.w3.org/1999/xlink">
<g id="graph0" class="graph" transform="scale(1 1) rotate(0) translate(4 207)">
<title>dependencies</title>
<polygon fill="#ffffff" stroke="transparent" points="-4,4 -4,-207 933,-207 933,4 -4,4"/>
<text text-anchor="start" x="443.5091" y="-42.4" font-family="sans-serif" font-weight="bold" font-size="14.00" fill="#000000">Legend</text>
<polygon fill="#ffffb3" stroke="transparent" points="230.5,-10 230.5,-30 250.5,-30 250.5,-10 230.5,-10"/>
<text text-anchor="start" x="254.129" y="-15.4" font-family="sans-serif" font-size="14.00" fill="#000000"> &#160;Declarations</text>
<polygon fill="#8dd3c7" stroke="transparent" points="343.5,-10 343.5,-30 363.5,-30 363.5,-10 343.5,-10"/>
<text text-anchor="start" x="367.2251" y="-15.4" font-family="sans-serif" font-size="14.00" fill="#000000"> &#160;Module</text>
<polygon fill="#80b1d3" stroke="transparent" points="429.5,-10 429.5,-30 449.5,-30 449.5,-10 429.5,-10"/>
<text text-anchor="start" x="453.2812" y="-15.4" font-family="sans-serif" font-size="14.00" fill="#000000"> &#160;Bootstrap</text>
<polygon fill="#fdb462" stroke="transparent" points="526.5,-10 526.5,-30 546.5,-30 546.5,-10 526.5,-10"/>
<text text-anchor="start" x="550.1732" y="-15.4" font-family="sans-serif" font-size="14.00" fill="#000000"> &#160;Providers</text>
<polygon fill="#fb8072" stroke="transparent" points="622.5,-10 622.5,-30 642.5,-30 642.5,-10 622.5,-10"/>
<text text-anchor="start" x="646.2258" y="-15.4" font-family="sans-serif" font-size="14.00" fill="#000000"> &#160;Exports</text>
<g id="clust1" class="cluster">
<title>cluster_StockModule</title>
<polygon fill="none" stroke="#000000" stroke-dasharray="1,5" points="8,-70 8,-195 921,-195 921,-70 8,-70"/>
</g>
<g id="clust2" class="cluster">
<title>cluster_StockModule_declarations</title>
<polygon fill="none" stroke="#000000" points="423,-78 423,-130 913,-130 913,-78 423,-78"/>
</g>
<g id="clust6" class="cluster">
<title>cluster_StockModule_imports</title>
<polygon fill="none" stroke="#000000" points="16,-78 16,-130 415,-130 415,-78 16,-78"/>
</g>
<!-- StockComponent -->
<g id="node1" class="node">
<title>StockComponent</title>
<polygon fill="#ffffb3" stroke="#000000" points="904.7204,-122 791.2796,-122 791.2796,-86 904.7204,-86 904.7204,-122"/>
<text text-anchor="middle" x="848" y="-99.8" font-family="Times,serif" font-size="14.00" fill="#000000">StockComponent</text>
</g>
<!-- StockModule -->
<g id="node4" class="node">
<title>StockModule</title>
<polygon fill="#8dd3c7" stroke="#000000" points="480.9387,-187 477.9387,-191 456.9387,-191 453.9387,-187 389.0613,-187 389.0613,-151 480.9387,-151 480.9387,-187"/>
<text text-anchor="middle" x="435" y="-164.8" font-family="Times,serif" font-size="14.00" fill="#000000">StockModule</text>
</g>
<!-- StockComponent&#45;&gt;StockModule -->
<g id="edge1" class="edge">
<title>StockComponent&#45;&gt;StockModule</title>
<path fill="none" stroke="#000000" d="M848,-122.2843C848,-143.3211 848,-175 848,-175 848,-175 490.7762,-175 490.7762,-175"/>
<polygon fill="#000000" stroke="#000000" points="490.7763,-171.5001 480.7762,-175 490.7762,-178.5001 490.7763,-171.5001"/>
</g>
<!-- StockUploadComponent -->
<g id="node2" class="node">
<title>StockUploadComponent</title>
<polygon fill="#ffffb3" stroke="#000000" points="773.4326,-122 618.5674,-122 618.5674,-86 773.4326,-86 773.4326,-122"/>
<text text-anchor="middle" x="696" y="-99.8" font-family="Times,serif" font-size="14.00" fill="#000000">StockUploadComponent</text>
</g>
<!-- StockUploadComponent&#45;&gt;StockModule -->
<g id="edge2" class="edge">
<title>StockUploadComponent&#45;&gt;StockModule</title>
<path fill="none" stroke="#000000" d="M696,-122.0225C696,-139.3734 696,-163 696,-163 696,-163 490.7614,-163 490.7614,-163"/>
<polygon fill="#000000" stroke="#000000" points="490.7614,-159.5001 480.7614,-163 490.7614,-166.5001 490.7614,-159.5001"/>
</g>
<!-- StockVehiculesComponent -->
<g id="node3" class="node">
<title>StockVehiculesComponent</title>
<polygon fill="#ffffb3" stroke="#000000" points="600.6965,-122 431.3035,-122 431.3035,-86 600.6965,-86 600.6965,-122"/>
<text text-anchor="middle" x="516" y="-99.8" font-family="Times,serif" font-size="14.00" fill="#000000">StockVehiculesComponent</text>
</g>
<!-- StockVehiculesComponent&#45;&gt;StockModule -->
<g id="edge3" class="edge">
<title>StockVehiculesComponent&#45;&gt;StockModule</title>
<path fill="none" stroke="#000000" d="M456.0603,-122.1061C456.0603,-122.1061 456.0603,-140.991 456.0603,-140.991"/>
<polygon fill="#000000" stroke="#000000" points="452.5604,-140.9909 456.0603,-150.991 459.5604,-140.991 452.5604,-140.9909"/>
</g>
<!-- GestionModule -->
<g id="node5" class="node">
<title>GestionModule</title>
<polygon fill="#8dd3c7" stroke="#000000" points="406.5968,-122 403.5968,-126 382.5968,-126 379.5968,-122 303.4032,-122 303.4032,-86 406.5968,-86 406.5968,-122"/>
<text text-anchor="middle" x="355" y="-99.8" font-family="Times,serif" font-size="14.00" fill="#000000">GestionModule</text>
</g>
<!-- GestionModule&#45;&gt;StockModule -->
<g id="edge4" class="edge">
<title>GestionModule&#45;&gt;StockModule</title>
<path fill="none" stroke="#000000" d="M397.9148,-122.1061C397.9148,-122.1061 397.9148,-140.991 397.9148,-140.991"/>
<polygon fill="#000000" stroke="#000000" points="394.4149,-140.9909 397.9148,-150.991 401.4149,-140.991 394.4149,-140.9909"/>
</g>
<!-- MaterialModule -->
<g id="node6" class="node">
<title>MaterialModule</title>
<polygon fill="#8dd3c7" stroke="#000000" points="285.4706,-122 282.4706,-126 261.4706,-126 258.4706,-122 178.5294,-122 178.5294,-86 285.4706,-86 285.4706,-122"/>
<text text-anchor="middle" x="232" y="-99.8" font-family="Times,serif" font-size="14.00" fill="#000000">MaterialModule</text>
</g>
<!-- MaterialModule&#45;&gt;StockModule -->
<g id="edge5" class="edge">
<title>MaterialModule&#45;&gt;StockModule</title>
<path fill="none" stroke="#000000" d="M232,-122.0225C232,-139.3734 232,-163 232,-163 232,-163 379.1897,-163 379.1897,-163"/>
<polygon fill="#000000" stroke="#000000" points="379.1898,-166.5001 389.1897,-163 379.1897,-159.5001 379.1898,-166.5001"/>
</g>
<!-- StockRoutingModule -->
<g id="node7" class="node">
<title>StockRoutingModule</title>
<polygon fill="#8dd3c7" stroke="#000000" points="160.0561,-122 157.0561,-126 136.0561,-126 133.0561,-122 23.9439,-122 23.9439,-86 160.0561,-86 160.0561,-122"/>
<text text-anchor="middle" x="92" y="-99.8" font-family="Times,serif" font-size="14.00" fill="#000000">StockRoutingModule</text>
</g>
<!-- StockRoutingModule&#45;&gt;StockModule -->
<g id="edge6" class="edge">
<title>StockRoutingModule&#45;&gt;StockModule</title>
<path fill="none" stroke="#000000" d="M92,-122.2843C92,-143.3211 92,-175 92,-175 92,-175 379.0974,-175 379.0974,-175"/>
<polygon fill="#000000" stroke="#000000" points="379.0974,-178.5001 389.0974,-175 379.0974,-171.5001 379.0974,-178.5001"/>
</g>
</g>
</svg>
