<?xml version="1.0" encoding="UTF-8" standalone="no"?>
<!DOCTYPE svg PUBLIC "-//W3C//DTD SVG 1.1//EN"
 "http://www.w3.org/Graphics/SVG/1.1/DTD/svg11.dtd">
<!-- Generated by graphviz version 2.40.1 (20161225.0304)
 -->
<!-- Title: dependencies Pages: 1 -->
<svg width="504pt" height="211pt"
 viewBox="0.00 0.00 504.00 211.00" xmlns="http://www.w3.org/2000/svg" xmlns:xlink="http://www.w3.org/1999/xlink">
<g id="graph0" class="graph" transform="scale(1 1) rotate(0) translate(4 207)">
<title>dependencies</title>
<polygon fill="#ffffff" stroke="transparent" points="-4,4 -4,-207 500,-207 500,4 -4,4"/>
<text text-anchor="start" x="227.0091" y="-42.4" font-family="sans-serif" font-weight="bold" font-size="14.00" fill="#000000">Legend</text>
<polygon fill="#ffffb3" stroke="transparent" points="14,-10 14,-30 34,-30 34,-10 14,-10"/>
<text text-anchor="start" x="37.629" y="-15.4" font-family="sans-serif" font-size="14.00" fill="#000000"> &#160;Declarations</text>
<polygon fill="#8dd3c7" stroke="transparent" points="127,-10 127,-30 147,-30 147,-10 127,-10"/>
<text text-anchor="start" x="150.7251" y="-15.4" font-family="sans-serif" font-size="14.00" fill="#000000"> &#160;Module</text>
<polygon fill="#80b1d3" stroke="transparent" points="213,-10 213,-30 233,-30 233,-10 213,-10"/>
<text text-anchor="start" x="236.7812" y="-15.4" font-family="sans-serif" font-size="14.00" fill="#000000"> &#160;Bootstrap</text>
<polygon fill="#fdb462" stroke="transparent" points="310,-10 310,-30 330,-30 330,-10 310,-10"/>
<text text-anchor="start" x="333.6732" y="-15.4" font-family="sans-serif" font-size="14.00" fill="#000000"> &#160;Providers</text>
<polygon fill="#fb8072" stroke="transparent" points="406,-10 406,-30 426,-30 426,-10 406,-10"/>
<text text-anchor="start" x="429.7258" y="-15.4" font-family="sans-serif" font-size="14.00" fill="#000000"> &#160;Exports</text>
<g id="clust1" class="cluster">
<title>cluster_ProfileModule</title>
<polygon fill="none" stroke="#000000" stroke-dasharray="1,5" points="28,-70 28,-195 468,-195 468,-70 28,-70"/>
</g>
<g id="clust2" class="cluster">
<title>cluster_ProfileModule_declarations</title>
<polygon fill="none" stroke="#000000" points="324,-78 324,-130 460,-130 460,-78 324,-78"/>
</g>
<g id="clust4" class="cluster">
<title>cluster_ProfileModule_imports</title>
<polygon fill="none" stroke="#000000" points="36,-78 36,-130 316,-130 316,-78 36,-78"/>
</g>
<!-- ProfileComponent -->
<g id="node1" class="node">
<title>ProfileComponent</title>
<polygon fill="#ffffb3" stroke="#000000" points="451.9328,-122 332.0672,-122 332.0672,-86 451.9328,-86 451.9328,-122"/>
<text text-anchor="middle" x="392" y="-99.8" font-family="Times,serif" font-size="14.00" fill="#000000">ProfileComponent</text>
</g>
<!-- ProfileModule -->
<g id="node2" class="node">
<title>ProfileModule</title>
<polygon fill="#8dd3c7" stroke="#000000" points="304.65,-187 301.65,-191 280.65,-191 277.65,-187 207.35,-187 207.35,-151 304.65,-151 304.65,-187"/>
<text text-anchor="middle" x="256" y="-164.8" font-family="Times,serif" font-size="14.00" fill="#000000">ProfileModule</text>
</g>
<!-- ProfileComponent&#45;&gt;ProfileModule -->
<g id="edge1" class="edge">
<title>ProfileComponent&#45;&gt;ProfileModule</title>
<path fill="none" stroke="#000000" d="M392,-122.1061C392,-141.3391 392,-169 392,-169 392,-169 314.715,-169 314.715,-169"/>
<polygon fill="#000000" stroke="#000000" points="314.715,-165.5001 304.715,-169 314.715,-172.5001 314.715,-165.5001"/>
</g>
<!-- GestionModule -->
<g id="node3" class="node">
<title>GestionModule</title>
<polygon fill="#8dd3c7" stroke="#000000" points="307.5968,-122 304.5968,-126 283.5968,-126 280.5968,-122 204.4032,-122 204.4032,-86 307.5968,-86 307.5968,-122"/>
<text text-anchor="middle" x="256" y="-99.8" font-family="Times,serif" font-size="14.00" fill="#000000">GestionModule</text>
</g>
<!-- GestionModule&#45;&gt;ProfileModule -->
<g id="edge2" class="edge">
<title>GestionModule&#45;&gt;ProfileModule</title>
<path fill="none" stroke="#000000" d="M256,-122.1061C256,-122.1061 256,-140.991 256,-140.991"/>
<polygon fill="#000000" stroke="#000000" points="252.5001,-140.9909 256,-150.991 259.5001,-140.991 252.5001,-140.9909"/>
</g>
<!-- ProfileRoutingModule -->
<g id="node4" class="node">
<title>ProfileRoutingModule</title>
<polygon fill="#8dd3c7" stroke="#000000" points="186.2674,-122 183.2674,-126 162.2674,-126 159.2674,-122 43.7326,-122 43.7326,-86 186.2674,-86 186.2674,-122"/>
<text text-anchor="middle" x="115" y="-99.8" font-family="Times,serif" font-size="14.00" fill="#000000">ProfileRoutingModule</text>
</g>
<!-- ProfileRoutingModule&#45;&gt;ProfileModule -->
<g id="edge3" class="edge">
<title>ProfileRoutingModule&#45;&gt;ProfileModule</title>
<path fill="none" stroke="#000000" d="M115,-122.1061C115,-141.3391 115,-169 115,-169 115,-169 197.0808,-169 197.0808,-169"/>
<polygon fill="#000000" stroke="#000000" points="197.0808,-172.5001 207.0808,-169 197.0807,-165.5001 197.0808,-172.5001"/>
</g>
</g>
</svg>
