<?xml version="1.0" encoding="UTF-8" standalone="no"?>
<!DOCTYPE svg PUBLIC "-//W3C//DTD SVG 1.1//EN"
 "http://www.w3.org/Graphics/SVG/1.1/DTD/svg11.dtd">
<!-- Generated by graphviz version 2.40.1 (20161225.0304)
 -->
<!-- Title: dependencies Pages: 1 -->
<svg width="3972pt" height="284pt"
 viewBox="0.00 0.00 3972.00 284.00" xmlns="http://www.w3.org/2000/svg" xmlns:xlink="http://www.w3.org/1999/xlink">
<g id="graph0" class="graph" transform="scale(1 1) rotate(0) translate(4 280)">
<title>dependencies</title>
<polygon fill="#ffffff" stroke="transparent" points="-4,4 -4,-280 3968,-280 3968,4 -4,4"/>
<text text-anchor="start" x="1961.0091" y="-42.4" font-family="sans-serif" font-weight="bold" font-size="14.00" fill="#000000">Legend</text>
<polygon fill="#ffffb3" stroke="transparent" points="1748,-10 1748,-30 1768,-30 1768,-10 1748,-10"/>
<text text-anchor="start" x="1771.629" y="-15.4" font-family="sans-serif" font-size="14.00" fill="#000000"> &#160;Declarations</text>
<polygon fill="#8dd3c7" stroke="transparent" points="1861,-10 1861,-30 1881,-30 1881,-10 1861,-10"/>
<text text-anchor="start" x="1884.7251" y="-15.4" font-family="sans-serif" font-size="14.00" fill="#000000"> &#160;Module</text>
<polygon fill="#80b1d3" stroke="transparent" points="1947,-10 1947,-30 1967,-30 1967,-10 1947,-10"/>
<text text-anchor="start" x="1970.7812" y="-15.4" font-family="sans-serif" font-size="14.00" fill="#000000"> &#160;Bootstrap</text>
<polygon fill="#fdb462" stroke="transparent" points="2044,-10 2044,-30 2064,-30 2064,-10 2044,-10"/>
<text text-anchor="start" x="2067.6732" y="-15.4" font-family="sans-serif" font-size="14.00" fill="#000000"> &#160;Providers</text>
<polygon fill="#fb8072" stroke="transparent" points="2140,-10 2140,-30 2160,-30 2160,-10 2140,-10"/>
<text text-anchor="start" x="2163.7258" y="-15.4" font-family="sans-serif" font-size="14.00" fill="#000000"> &#160;Exports</text>
<g id="clust1" class="cluster">
<title>cluster_GestionModule</title>
<polygon fill="none" stroke="#000000" stroke-dasharray="1,5" points="8,-70 8,-268 3956,-268 3956,-70 8,-70"/>
</g>
<g id="clust2" class="cluster">
<title>cluster_GestionModule_declarations</title>
<polygon fill="none" stroke="#000000" points="313,-78 313,-130 3948,-130 3948,-78 313,-78"/>
</g>
<g id="clust24" class="cluster">
<title>cluster_GestionModule_imports</title>
<polygon fill="none" stroke="#000000" points="16,-78 16,-130 305,-130 305,-78 16,-78"/>
</g>
<g id="clust25" class="cluster">
<title>cluster_GestionModule_exports</title>
<polygon fill="none" stroke="#000000" points="1788,-208 1788,-260 2218,-260 2218,-208 1788,-208"/>
</g>
<!-- AjouterCouleurComponent -->
<g id="node1" class="node">
<title>AjouterCouleurComponent</title>
<polygon fill="#ffffb3" stroke="#000000" points="3939.6979,-122 3770.3021,-122 3770.3021,-86 3939.6979,-86 3939.6979,-122"/>
<text text-anchor="middle" x="3855" y="-99.8" font-family="Times,serif" font-size="14.00" fill="#000000">AjouterCouleurComponent</text>
</g>
<!-- GestionModule -->
<g id="node22" class="node">
<title>GestionModule</title>
<polygon fill="#8dd3c7" stroke="#000000" points="2058.5968,-187 2055.5968,-191 2034.5968,-191 2031.5968,-187 1955.4032,-187 1955.4032,-151 2058.5968,-151 2058.5968,-187"/>
<text text-anchor="middle" x="2007" y="-164.8" font-family="Times,serif" font-size="14.00" fill="#000000">GestionModule</text>
</g>
<!-- AjouterCouleurComponent&#45;&gt;GestionModule -->
<g id="edge1" class="edge">
<title>AjouterCouleurComponent&#45;&gt;GestionModule</title>
<path fill="none" stroke="#000000" d="M3855,-122.0908C3855,-145.1328 3855,-182 3855,-182 3855,-182 2068.8415,-182 2068.8415,-182"/>
<polygon fill="#000000" stroke="#000000" points="2068.8415,-178.5001 2058.8415,-182 2068.8415,-185.5001 2068.8415,-178.5001"/>
</g>
<!-- AjouterModeleComponent -->
<g id="node2" class="node">
<title>AjouterModeleComponent</title>
<polygon fill="#ffffb3" stroke="#000000" points="3752.3599,-122 3585.6401,-122 3585.6401,-86 3752.3599,-86 3752.3599,-122"/>
<text text-anchor="middle" x="3669" y="-99.8" font-family="Times,serif" font-size="14.00" fill="#000000">AjouterModeleComponent</text>
</g>
<!-- AjouterModeleComponent&#45;&gt;GestionModule -->
<g id="edge2" class="edge">
<title>AjouterModeleComponent&#45;&gt;GestionModule</title>
<path fill="none" stroke="#000000" d="M3669,-122.1554C3669,-144.3519 3669,-179 3669,-179 3669,-179 2068.5628,-179 2068.5628,-179"/>
<polygon fill="#000000" stroke="#000000" points="2068.5629,-175.5001 2058.5628,-179 2068.5628,-182.5001 2068.5629,-175.5001"/>
</g>
<!-- AjouterOptionComponent -->
<g id="node3" class="node">
<title>AjouterOptionComponent</title>
<polygon fill="#ffffb3" stroke="#000000" points="3567.4832,-122 3404.5168,-122 3404.5168,-86 3567.4832,-86 3567.4832,-122"/>
<text text-anchor="middle" x="3486" y="-99.8" font-family="Times,serif" font-size="14.00" fill="#000000">AjouterOptionComponent</text>
</g>
<!-- AjouterOptionComponent&#45;&gt;GestionModule -->
<g id="edge3" class="edge">
<title>AjouterOptionComponent&#45;&gt;GestionModule</title>
<path fill="none" stroke="#000000" d="M3486,-122.1686C3486,-143.498 3486,-176 3486,-176 3486,-176 2068.7712,-176 2068.7712,-176"/>
<polygon fill="#000000" stroke="#000000" points="2068.7712,-172.5001 2058.7712,-176 2068.7711,-179.5001 2068.7712,-172.5001"/>
</g>
<!-- AjouterVersionComponent -->
<g id="node4" class="node">
<title>AjouterVersionComponent</title>
<polygon fill="#ffffb3" stroke="#000000" points="3386.4129,-122 3217.5871,-122 3217.5871,-86 3386.4129,-86 3386.4129,-122"/>
<text text-anchor="middle" x="3302" y="-99.8" font-family="Times,serif" font-size="14.00" fill="#000000">AjouterVersionComponent</text>
</g>
<!-- AjouterVersionComponent&#45;&gt;GestionModule -->
<g id="edge4" class="edge">
<title>AjouterVersionComponent&#45;&gt;GestionModule</title>
<path fill="none" stroke="#000000" d="M3302,-122.0267C3302,-142.7672 3302,-174 3302,-174 3302,-174 2068.5647,-174 2068.5647,-174"/>
<polygon fill="#000000" stroke="#000000" points="2068.5647,-170.5001 2058.5647,-174 2068.5646,-177.5001 2068.5647,-170.5001"/>
</g>
<!-- DateAgoPipe -->
<g id="node5" class="node">
<title>DateAgoPipe</title>
<polygon fill="#ffffb3" stroke="#000000" points="3199.9218,-122 3108.0782,-122 3108.0782,-86 3199.9218,-86 3199.9218,-122"/>
<text text-anchor="middle" x="3154" y="-99.8" font-family="Times,serif" font-size="14.00" fill="#000000">DateAgoPipe</text>
</g>
<!-- DateAgoPipe&#45;&gt;GestionModule -->
<g id="edge5" class="edge">
<title>DateAgoPipe&#45;&gt;GestionModule</title>
<path fill="none" stroke="#000000" d="M3154,-122.308C3154,-142.1455 3154,-171 3154,-171 3154,-171 2068.888,-171 2068.888,-171"/>
<polygon fill="#000000" stroke="#000000" points="2068.888,-167.5001 2058.888,-171 2068.8879,-174.5001 2068.888,-167.5001"/>
</g>
<!-- FicheModeleComponent -->
<g id="node6" class="node">
<title>FicheModeleComponent</title>
<polygon fill="#ffffb3" stroke="#000000" points="3090.6993,-122 2935.3007,-122 2935.3007,-86 3090.6993,-86 3090.6993,-122"/>
<text text-anchor="middle" x="3013" y="-99.8" font-family="Times,serif" font-size="14.00" fill="#000000">FicheModeleComponent</text>
</g>
<!-- FicheModeleComponent&#45;&gt;GestionModule -->
<g id="edge6" class="edge">
<title>FicheModeleComponent&#45;&gt;GestionModule</title>
<path fill="none" stroke="#000000" d="M3013,-122.1686C3013,-141.0898 3013,-168 3013,-168 3013,-168 2068.6191,-168 2068.6191,-168"/>
<polygon fill="#000000" stroke="#000000" points="2068.6192,-164.5001 2058.6191,-168 2068.6191,-171.5001 2068.6192,-164.5001"/>
</g>
<!-- FicheVersionComponent -->
<g id="node7" class="node">
<title>FicheVersionComponent</title>
<polygon fill="#ffffb3" stroke="#000000" points="2917.252,-122 2760.748,-122 2760.748,-86 2917.252,-86 2917.252,-122"/>
<text text-anchor="middle" x="2839" y="-99.8" font-family="Times,serif" font-size="14.00" fill="#000000">FicheVersionComponent</text>
</g>
<!-- FicheVersionComponent&#45;&gt;GestionModule -->
<g id="edge7" class="edge">
<title>FicheVersionComponent&#45;&gt;GestionModule</title>
<path fill="none" stroke="#000000" d="M2839,-122.302C2839,-140.2699 2839,-165 2839,-165 2839,-165 2068.731,-165 2068.731,-165"/>
<polygon fill="#000000" stroke="#000000" points="2068.731,-161.5001 2058.731,-165 2068.7309,-168.5001 2068.731,-161.5001"/>
</g>
<!-- FooterComponent -->
<g id="node8" class="node">
<title>FooterComponent</title>
<polygon fill="#ffffb3" stroke="#000000" points="2742.8809,-122 2625.1191,-122 2625.1191,-86 2742.8809,-86 2742.8809,-122"/>
<text text-anchor="middle" x="2684" y="-99.8" font-family="Times,serif" font-size="14.00" fill="#000000">FooterComponent</text>
</g>
<!-- FooterComponent&#45;&gt;GestionModule -->
<g id="edge8" class="edge">
<title>FooterComponent&#45;&gt;GestionModule</title>
<path fill="none" stroke="#000000" d="M2684,-122.0225C2684,-139.3734 2684,-163 2684,-163 2684,-163 2068.7195,-163 2068.7195,-163"/>
<polygon fill="#000000" stroke="#000000" points="2068.7195,-159.5001 2058.7195,-163 2068.7195,-166.5001 2068.7195,-159.5001"/>
</g>
<!-- GestionComponent -->
<g id="node9" class="node">
<title>GestionComponent</title>
<polygon fill="#ffffb3" stroke="#000000" points="2607.3795,-122 2482.6205,-122 2482.6205,-86 2607.3795,-86 2607.3795,-122"/>
<text text-anchor="middle" x="2545" y="-99.8" font-family="Times,serif" font-size="14.00" fill="#000000">GestionComponent</text>
</g>
<!-- GestionComponent&#45;&gt;GestionModule -->
<g id="edge9" class="edge">
<title>GestionComponent&#45;&gt;GestionModule</title>
<path fill="none" stroke="#000000" d="M2545,-122.027C2545,-138.3976 2545,-160 2545,-160 2545,-160 2068.5857,-160 2068.5857,-160"/>
<polygon fill="#000000" stroke="#000000" points="2068.5857,-156.5001 2058.5857,-160 2068.5857,-163.5001 2068.5857,-156.5001"/>
</g>
<!-- GestionCouleurComponent -->
<g id="node10" class="node">
<title>GestionCouleurComponent</title>
<polygon fill="#ffffb3" stroke="#000000" points="2464.9818,-122 2295.0182,-122 2295.0182,-86 2464.9818,-86 2464.9818,-122"/>
<text text-anchor="middle" x="2380" y="-99.8" font-family="Times,serif" font-size="14.00" fill="#000000">GestionCouleurComponent</text>
</g>
<!-- GestionCouleurComponent&#45;&gt;GestionModule -->
<g id="edge10" class="edge">
<title>GestionCouleurComponent&#45;&gt;GestionModule</title>
<path fill="none" stroke="#000000" d="M2380,-122.2396C2380,-137.5706 2380,-157 2380,-157 2380,-157 2068.8641,-157 2068.8641,-157"/>
<polygon fill="#000000" stroke="#000000" points="2068.8641,-153.5001 2058.8641,-157 2068.864,-160.5001 2068.8641,-153.5001"/>
</g>
<!-- GestionModeleComponent -->
<g id="node11" class="node">
<title>GestionModeleComponent</title>
<polygon fill="#ffffb3" stroke="#000000" points="2276.6442,-122 2109.3558,-122 2109.3558,-86 2276.6442,-86 2276.6442,-122"/>
<text text-anchor="middle" x="2193" y="-99.8" font-family="Times,serif" font-size="14.00" fill="#000000">GestionModeleComponent</text>
</g>
<!-- GestionModeleComponent&#45;&gt;GestionModule -->
<g id="edge11" class="edge">
<title>GestionModeleComponent&#45;&gt;GestionModule</title>
<path fill="none" stroke="#000000" d="M2159.4343,-122.0511C2159.4343,-136.373 2159.4343,-154 2159.4343,-154 2159.4343,-154 2068.6073,-154 2068.6073,-154"/>
<polygon fill="#000000" stroke="#000000" points="2068.6073,-150.5001 2058.6073,-154 2068.6072,-157.5001 2068.6073,-150.5001"/>
</g>
<!-- GestionOptionsComponent -->
<g id="node12" class="node">
<title>GestionOptionsComponent</title>
<polygon fill="#ffffb3" stroke="#000000" points="2091.7119,-122 1922.2881,-122 1922.2881,-86 2091.7119,-86 2091.7119,-122"/>
<text text-anchor="middle" x="2007" y="-99.8" font-family="Times,serif" font-size="14.00" fill="#000000">GestionOptionsComponent</text>
</g>
<!-- GestionOptionsComponent&#45;&gt;GestionModule -->
<g id="edge12" class="edge">
<title>GestionOptionsComponent&#45;&gt;GestionModule</title>
<path fill="none" stroke="#000000" d="M1989.8172,-122.1061C1989.8172,-122.1061 1989.8172,-140.991 1989.8172,-140.991"/>
<polygon fill="#000000" stroke="#000000" points="1986.3173,-140.9909 1989.8172,-150.991 1993.3173,-140.991 1986.3173,-140.9909"/>
</g>
<!-- GestionOptionsComponent&#45;&gt;GestionModule -->
<g id="edge13" class="edge">
<title>GestionOptionsComponent&#45;&gt;GestionModule</title>
<path fill="none" stroke="#000000" d="M2024.1828,-122.1061C2024.1828,-122.1061 2024.1828,-140.991 2024.1828,-140.991"/>
<polygon fill="#000000" stroke="#000000" points="2020.6829,-140.9909 2024.1828,-150.991 2027.6829,-140.991 2020.6829,-140.9909"/>
</g>
<!-- GestionVersionComponent -->
<g id="node13" class="node">
<title>GestionVersionComponent</title>
<polygon fill="#ffffb3" stroke="#000000" points="1904.6965,-122 1735.3035,-122 1735.3035,-86 1904.6965,-86 1904.6965,-122"/>
<text text-anchor="middle" x="1820" y="-99.8" font-family="Times,serif" font-size="14.00" fill="#000000">GestionVersionComponent</text>
</g>
<!-- GestionVersionComponent&#45;&gt;GestionModule -->
<g id="edge14" class="edge">
<title>GestionVersionComponent&#45;&gt;GestionModule</title>
<path fill="none" stroke="#000000" d="M1850.3154,-122.0511C1850.3154,-136.373 1850.3154,-154 1850.3154,-154 1850.3154,-154 1945.2614,-154 1945.2614,-154"/>
<polygon fill="#000000" stroke="#000000" points="1945.2614,-157.5001 1955.2614,-154 1945.2613,-150.5001 1945.2614,-157.5001"/>
</g>
<!-- InfosDialogComponent -->
<g id="node14" class="node">
<title>InfosDialogComponent</title>
<polygon fill="#ffffb3" stroke="#000000" points="1717.2007,-122 1568.7993,-122 1568.7993,-86 1717.2007,-86 1717.2007,-122"/>
<text text-anchor="middle" x="1643" y="-99.8" font-family="Times,serif" font-size="14.00" fill="#000000">InfosDialogComponent</text>
</g>
<!-- InfosDialogComponent&#45;&gt;GestionModule -->
<g id="edge15" class="edge">
<title>InfosDialogComponent&#45;&gt;GestionModule</title>
<path fill="none" stroke="#000000" d="M1643,-122.2396C1643,-137.5706 1643,-157 1643,-157 1643,-157 1945.2342,-157 1945.2342,-157"/>
<polygon fill="#000000" stroke="#000000" points="1945.2343,-160.5001 1955.2342,-157 1945.2342,-153.5001 1945.2343,-160.5001"/>
</g>
<!-- ModifierCouleurComponent -->
<g id="node15" class="node">
<title>ModifierCouleurComponent</title>
<polygon fill="#ffffb3" stroke="#000000" points="1551.1965,-122 1374.8035,-122 1374.8035,-86 1551.1965,-86 1551.1965,-122"/>
<text text-anchor="middle" x="1463" y="-99.8" font-family="Times,serif" font-size="14.00" fill="#000000">ModifierCouleurComponent</text>
</g>
<!-- ModifierCouleurComponent&#45;&gt;GestionModule -->
<g id="edge16" class="edge">
<title>ModifierCouleurComponent&#45;&gt;GestionModule</title>
<path fill="none" stroke="#000000" d="M1463,-122.027C1463,-138.3976 1463,-160 1463,-160 1463,-160 1945.3314,-160 1945.3314,-160"/>
<polygon fill="#000000" stroke="#000000" points="1945.3314,-163.5001 1955.3314,-160 1945.3313,-156.5001 1945.3314,-163.5001"/>
</g>
<!-- ModifierModeleComponent -->
<g id="node16" class="node">
<title>ModifierModeleComponent</title>
<polygon fill="#ffffb3" stroke="#000000" points="1356.8585,-122 1183.1415,-122 1183.1415,-86 1356.8585,-86 1356.8585,-122"/>
<text text-anchor="middle" x="1270" y="-99.8" font-family="Times,serif" font-size="14.00" fill="#000000">ModifierModeleComponent</text>
</g>
<!-- ModifierModeleComponent&#45;&gt;GestionModule -->
<g id="edge17" class="edge">
<title>ModifierModeleComponent&#45;&gt;GestionModule</title>
<path fill="none" stroke="#000000" d="M1270,-122.0225C1270,-139.3734 1270,-163 1270,-163 1270,-163 1945.1756,-163 1945.1756,-163"/>
<polygon fill="#000000" stroke="#000000" points="1945.1756,-166.5001 1955.1756,-163 1945.1756,-159.5001 1945.1756,-166.5001"/>
</g>
<!-- ModifierOptionComponent -->
<g id="node17" class="node">
<title>ModifierOptionComponent</title>
<polygon fill="#ffffb3" stroke="#000000" points="1164.9818,-122 995.0182,-122 995.0182,-86 1164.9818,-86 1164.9818,-122"/>
<text text-anchor="middle" x="1080" y="-99.8" font-family="Times,serif" font-size="14.00" fill="#000000">ModifierOptionComponent</text>
</g>
<!-- ModifierOptionComponent&#45;&gt;GestionModule -->
<g id="edge18" class="edge">
<title>ModifierOptionComponent&#45;&gt;GestionModule</title>
<path fill="none" stroke="#000000" d="M1080,-122.302C1080,-140.2699 1080,-165 1080,-165 1080,-165 1945.1741,-165 1945.1741,-165"/>
<polygon fill="#000000" stroke="#000000" points="1945.1741,-168.5001 1955.1741,-165 1945.1741,-161.5001 1945.1741,-168.5001"/>
</g>
<!-- ModifierVerionComponent -->
<g id="node18" class="node">
<title>ModifierVerionComponent</title>
<polygon fill="#ffffb3" stroke="#000000" points="976.9664,-122 807.0336,-122 807.0336,-86 976.9664,-86 976.9664,-122"/>
<text text-anchor="middle" x="892" y="-99.8" font-family="Times,serif" font-size="14.00" fill="#000000">ModifierVerionComponent</text>
</g>
<!-- ModifierVerionComponent&#45;&gt;GestionModule -->
<g id="edge19" class="edge">
<title>ModifierVerionComponent&#45;&gt;GestionModule</title>
<path fill="none" stroke="#000000" d="M892,-122.1686C892,-141.0898 892,-168 892,-168 892,-168 1945.0877,-168 1945.0877,-168"/>
<polygon fill="#000000" stroke="#000000" points="1945.0877,-171.5001 1955.0877,-168 1945.0877,-164.5001 1945.0877,-171.5001"/>
</g>
<!-- NavbarComponent -->
<g id="node19" class="node">
<title>NavbarComponent</title>
<polygon fill="#ffffb3" stroke="#000000" points="789.0297,-122 666.9703,-122 666.9703,-86 789.0297,-86 789.0297,-122"/>
<text text-anchor="middle" x="728" y="-99.8" font-family="Times,serif" font-size="14.00" fill="#000000">NavbarComponent</text>
</g>
<!-- NavbarComponent&#45;&gt;GestionModule -->
<g id="edge20" class="edge">
<title>NavbarComponent&#45;&gt;GestionModule</title>
<path fill="none" stroke="#000000" d="M728,-122.308C728,-142.1455 728,-171 728,-171 728,-171 1945.2776,-171 1945.2776,-171"/>
<polygon fill="#000000" stroke="#000000" points="1945.2776,-174.5001 1955.2776,-171 1945.2776,-167.5001 1945.2776,-174.5001"/>
</g>
<!-- SidenavComponent -->
<g id="node20" class="node">
<title>SidenavComponent</title>
<polygon fill="#ffffb3" stroke="#000000" points="649.4356,-122 522.5644,-122 522.5644,-86 649.4356,-86 649.4356,-122"/>
<text text-anchor="middle" x="586" y="-99.8" font-family="Times,serif" font-size="14.00" fill="#000000">SidenavComponent</text>
</g>
<!-- SidenavComponent&#45;&gt;GestionModule -->
<g id="edge21" class="edge">
<title>SidenavComponent&#45;&gt;GestionModule</title>
<path fill="none" stroke="#000000" d="M586,-122.0267C586,-142.7672 586,-174 586,-174 586,-174 1945.1643,-174 1945.1643,-174"/>
<polygon fill="#000000" stroke="#000000" points="1945.1643,-177.5001 1955.1643,-174 1945.1642,-170.5001 1945.1643,-177.5001"/>
</g>
<!-- SupprimerModeleComponent -->
<g id="node21" class="node">
<title>SupprimerModeleComponent</title>
<polygon fill="#ffffb3" stroke="#000000" points="504.6965,-122 321.3035,-122 321.3035,-86 504.6965,-86 504.6965,-122"/>
<text text-anchor="middle" x="413" y="-99.8" font-family="Times,serif" font-size="14.00" fill="#000000">SupprimerModeleComponent</text>
</g>
<!-- SupprimerModeleComponent&#45;&gt;GestionModule -->
<g id="edge22" class="edge">
<title>SupprimerModeleComponent&#45;&gt;GestionModule</title>
<path fill="none" stroke="#000000" d="M413,-122.1686C413,-143.498 413,-176 413,-176 413,-176 1945.3215,-176 1945.3215,-176"/>
<polygon fill="#000000" stroke="#000000" points="1945.3215,-179.5001 1955.3215,-176 1945.3214,-172.5001 1945.3215,-179.5001"/>
</g>
<!-- FooterComponent  -->
<g id="node25" class="node">
<title>FooterComponent </title>
<polygon fill="#fb8072" stroke="#000000" points="2209.8814,-252 2088.1186,-252 2088.1186,-216 2209.8814,-216 2209.8814,-252"/>
<text text-anchor="middle" x="2149" y="-229.8" font-family="Times,serif" font-size="14.00" fill="#000000">FooterComponent </text>
</g>
<!-- GestionModule&#45;&gt;FooterComponent  -->
<g id="edge25" class="edge">
<title>GestionModule&#45;&gt;FooterComponent </title>
<path fill="none" stroke="#000000" stroke-dasharray="5,2" d="M2058.6129,-185C2080.2119,-185 2100.392,-185 2100.392,-185 2100.392,-185 2100.392,-205.7542 2100.392,-205.7542"/>
<polygon fill="#000000" stroke="#000000" points="2096.8921,-205.7542 2100.392,-215.7542 2103.8921,-205.7542 2096.8921,-205.7542"/>
</g>
<!-- NavbarComponent  -->
<g id="node26" class="node">
<title>NavbarComponent </title>
<polygon fill="#fb8072" stroke="#000000" points="2070.0288,-252 1943.9712,-252 1943.9712,-216 2070.0288,-216 2070.0288,-252"/>
<text text-anchor="middle" x="2007" y="-229.8" font-family="Times,serif" font-size="14.00" fill="#000000">NavbarComponent </text>
</g>
<!-- GestionModule&#45;&gt;NavbarComponent  -->
<g id="edge26" class="edge">
<title>GestionModule&#45;&gt;NavbarComponent </title>
<path fill="none" stroke="#000000" stroke-dasharray="5,2" d="M2007,-187.1061C2007,-187.1061 2007,-205.991 2007,-205.991"/>
<polygon fill="#000000" stroke="#000000" points="2003.5001,-205.9909 2007,-215.991 2010.5001,-205.991 2003.5001,-205.9909"/>
</g>
<!-- SidenavComponent  -->
<g id="node27" class="node">
<title>SidenavComponent </title>
<polygon fill="#fb8072" stroke="#000000" points="1925.9348,-252 1796.0652,-252 1796.0652,-216 1925.9348,-216 1925.9348,-252"/>
<text text-anchor="middle" x="1861" y="-229.8" font-family="Times,serif" font-size="14.00" fill="#000000">SidenavComponent </text>
</g>
<!-- GestionModule&#45;&gt;SidenavComponent  -->
<g id="edge27" class="edge">
<title>GestionModule&#45;&gt;SidenavComponent </title>
<path fill="none" stroke="#000000" stroke-dasharray="5,2" d="M1955.3253,-185C1933.7004,-185 1913.4962,-185 1913.4962,-185 1913.4962,-185 1913.4962,-205.7542 1913.4962,-205.7542"/>
<polygon fill="#000000" stroke="#000000" points="1909.9962,-205.7542 1913.4962,-215.7542 1916.9962,-205.7542 1909.9962,-205.7542"/>
</g>
<!-- GestionRoutingModule -->
<g id="node23" class="node">
<title>GestionRoutingModule</title>
<polygon fill="#8dd3c7" stroke="#000000" points="297.2148,-122 294.2148,-126 273.2148,-126 270.2148,-122 148.7852,-122 148.7852,-86 297.2148,-86 297.2148,-122"/>
<text text-anchor="middle" x="223" y="-99.8" font-family="Times,serif" font-size="14.00" fill="#000000">GestionRoutingModule</text>
</g>
<!-- GestionRoutingModule&#45;&gt;GestionModule -->
<g id="edge23" class="edge">
<title>GestionRoutingModule&#45;&gt;GestionModule</title>
<path fill="none" stroke="#000000" d="M223,-122.1554C223,-144.3519 223,-179 223,-179 223,-179 1945.0544,-179 1945.0544,-179"/>
<polygon fill="#000000" stroke="#000000" points="1945.0544,-182.5001 1955.0544,-179 1945.0543,-175.5001 1945.0544,-182.5001"/>
</g>
<!-- MaterialModule -->
<g id="node24" class="node">
<title>MaterialModule</title>
<polygon fill="#8dd3c7" stroke="#000000" points="130.4706,-122 127.4706,-126 106.4706,-126 103.4706,-122 23.5294,-122 23.5294,-86 130.4706,-86 130.4706,-122"/>
<text text-anchor="middle" x="77" y="-99.8" font-family="Times,serif" font-size="14.00" fill="#000000">MaterialModule</text>
</g>
<!-- MaterialModule&#45;&gt;GestionModule -->
<g id="edge24" class="edge">
<title>MaterialModule&#45;&gt;GestionModule</title>
<path fill="none" stroke="#000000" d="M77,-122.0908C77,-145.1328 77,-182 77,-182 77,-182 1945.3772,-182 1945.3772,-182"/>
<polygon fill="#000000" stroke="#000000" points="1945.3772,-185.5001 1955.3772,-182 1945.3771,-178.5001 1945.3772,-185.5001"/>
</g>
</g>
</svg>
