<?xml version="1.0" encoding="UTF-8" standalone="no"?>
<!DOCTYPE svg PUBLIC "-//W3C//DTD SVG 1.1//EN"
 "http://www.w3.org/Graphics/SVG/1.1/DTD/svg11.dtd">
<!-- Generated by graphviz version 2.40.1 (20161225.0304)
 -->
<!-- Title: dependencies Pages: 1 -->
<svg width="797pt" height="211pt"
 viewBox="0.00 0.00 797.00 211.00" xmlns="http://www.w3.org/2000/svg" xmlns:xlink="http://www.w3.org/1999/xlink">
<g id="graph0" class="graph" transform="scale(1 1) rotate(0) translate(4 207)">
<title>dependencies</title>
<polygon fill="#ffffff" stroke="transparent" points="-4,4 -4,-207 793,-207 793,4 -4,4"/>
<text text-anchor="start" x="373.5091" y="-42.4" font-family="sans-serif" font-weight="bold" font-size="14.00" fill="#000000">Legend</text>
<polygon fill="#ffffb3" stroke="transparent" points="160.5,-10 160.5,-30 180.5,-30 180.5,-10 160.5,-10"/>
<text text-anchor="start" x="184.129" y="-15.4" font-family="sans-serif" font-size="14.00" fill="#000000"> &#160;Declarations</text>
<polygon fill="#8dd3c7" stroke="transparent" points="273.5,-10 273.5,-30 293.5,-30 293.5,-10 273.5,-10"/>
<text text-anchor="start" x="297.2251" y="-15.4" font-family="sans-serif" font-size="14.00" fill="#000000"> &#160;Module</text>
<polygon fill="#80b1d3" stroke="transparent" points="359.5,-10 359.5,-30 379.5,-30 379.5,-10 359.5,-10"/>
<text text-anchor="start" x="383.2812" y="-15.4" font-family="sans-serif" font-size="14.00" fill="#000000"> &#160;Bootstrap</text>
<polygon fill="#fdb462" stroke="transparent" points="456.5,-10 456.5,-30 476.5,-30 476.5,-10 456.5,-10"/>
<text text-anchor="start" x="480.1732" y="-15.4" font-family="sans-serif" font-size="14.00" fill="#000000"> &#160;Providers</text>
<polygon fill="#fb8072" stroke="transparent" points="552.5,-10 552.5,-30 572.5,-30 572.5,-10 552.5,-10"/>
<text text-anchor="start" x="576.2258" y="-15.4" font-family="sans-serif" font-size="14.00" fill="#000000"> &#160;Exports</text>
<g id="clust1" class="cluster">
<title>cluster_SimulationModule</title>
<polygon fill="none" stroke="#000000" stroke-dasharray="1,5" points="8,-70 8,-195 781,-195 781,-70 8,-70"/>
</g>
<g id="clust2" class="cluster">
<title>cluster_SimulationModule_declarations</title>
<polygon fill="none" stroke="#000000" points="453,-78 453,-130 773,-130 773,-78 453,-78"/>
</g>
<g id="clust5" class="cluster">
<title>cluster_SimulationModule_imports</title>
<polygon fill="none" stroke="#000000" points="16,-78 16,-130 445,-130 445,-78 16,-78"/>
</g>
<!-- InfosDispoComponent -->
<g id="node1" class="node">
<title>InfosDispoComponent</title>
<polygon fill="#ffffb3" stroke="#000000" points="764.5407,-122 621.4593,-122 621.4593,-86 764.5407,-86 764.5407,-122"/>
<text text-anchor="middle" x="693" y="-99.8" font-family="Times,serif" font-size="14.00" fill="#000000">InfosDispoComponent</text>
</g>
<!-- SimulationModule -->
<g id="node3" class="node">
<title>SimulationModule</title>
<polygon fill="#8dd3c7" stroke="#000000" points="445.5,-187 442.5,-191 421.5,-191 418.5,-187 324.5,-187 324.5,-151 445.5,-151 445.5,-187"/>
<text text-anchor="middle" x="385" y="-164.8" font-family="Times,serif" font-size="14.00" fill="#000000">SimulationModule</text>
</g>
<!-- InfosDispoComponent&#45;&gt;SimulationModule -->
<g id="edge1" class="edge">
<title>InfosDispoComponent&#45;&gt;SimulationModule</title>
<path fill="none" stroke="#000000" d="M693,-122.1061C693,-141.3391 693,-169 693,-169 693,-169 455.8509,-169 455.8509,-169"/>
<polygon fill="#000000" stroke="#000000" points="455.8509,-165.5001 445.8509,-169 455.8509,-172.5001 455.8509,-165.5001"/>
</g>
<!-- SimulationComponent -->
<g id="node2" class="node">
<title>SimulationComponent</title>
<polygon fill="#ffffb3" stroke="#000000" points="603.2828,-122 460.7172,-122 460.7172,-86 603.2828,-86 603.2828,-122"/>
<text text-anchor="middle" x="532" y="-99.8" font-family="Times,serif" font-size="14.00" fill="#000000">SimulationComponent</text>
</g>
<!-- SimulationComponent&#45;&gt;SimulationModule -->
<g id="edge2" class="edge">
<title>SimulationComponent&#45;&gt;SimulationModule</title>
<path fill="none" stroke="#000000" d="M460.3178,-104C449.0423,-104 441.0242,-104 441.0242,-104 441.0242,-104 441.0242,-140.8939 441.0242,-140.8939"/>
<polygon fill="#000000" stroke="#000000" points="437.5243,-140.8938 441.0242,-150.8939 444.5243,-140.8939 437.5243,-140.8938"/>
</g>
<!-- GestionModule -->
<g id="node4" class="node">
<title>GestionModule</title>
<polygon fill="#8dd3c7" stroke="#000000" points="436.5968,-122 433.5968,-126 412.5968,-126 409.5968,-122 333.4032,-122 333.4032,-86 436.5968,-86 436.5968,-122"/>
<text text-anchor="middle" x="385" y="-99.8" font-family="Times,serif" font-size="14.00" fill="#000000">GestionModule</text>
</g>
<!-- GestionModule&#45;&gt;SimulationModule -->
<g id="edge3" class="edge">
<title>GestionModule&#45;&gt;SimulationModule</title>
<path fill="none" stroke="#000000" d="M385,-122.1061C385,-122.1061 385,-140.991 385,-140.991"/>
<polygon fill="#000000" stroke="#000000" points="381.5001,-140.9909 385,-150.991 388.5001,-140.991 381.5001,-140.9909"/>
</g>
<!-- MaterialModule -->
<g id="node5" class="node">
<title>MaterialModule</title>
<polygon fill="#8dd3c7" stroke="#000000" points="315.4706,-122 312.4706,-126 291.4706,-126 288.4706,-122 208.5294,-122 208.5294,-86 315.4706,-86 315.4706,-122"/>
<text text-anchor="middle" x="262" y="-99.8" font-family="Times,serif" font-size="14.00" fill="#000000">MaterialModule</text>
</g>
<!-- MaterialModule&#45;&gt;SimulationModule -->
<g id="edge4" class="edge">
<title>MaterialModule&#45;&gt;SimulationModule</title>
<path fill="none" stroke="#000000" d="M315.7435,-104C323.5297,-104 328.9758,-104 328.9758,-104 328.9758,-104 328.9758,-140.8939 328.9758,-140.8939"/>
<polygon fill="#000000" stroke="#000000" points="325.4759,-140.8938 328.9758,-150.8939 332.4759,-140.8939 325.4759,-140.8938"/>
</g>
<!-- SimulationRoutingModule -->
<g id="node6" class="node">
<title>SimulationRoutingModule</title>
<polygon fill="#8dd3c7" stroke="#000000" points="190.1178,-122 187.1178,-126 166.1178,-126 163.1178,-122 23.8822,-122 23.8822,-86 190.1178,-86 190.1178,-122"/>
<text text-anchor="middle" x="107" y="-99.8" font-family="Times,serif" font-size="14.00" fill="#000000">SimulationRoutingModule</text>
</g>
<!-- SimulationRoutingModule&#45;&gt;SimulationModule -->
<g id="edge5" class="edge">
<title>SimulationRoutingModule&#45;&gt;SimulationModule</title>
<path fill="none" stroke="#000000" d="M107,-122.1061C107,-141.3391 107,-169 107,-169 107,-169 314.3352,-169 314.3352,-169"/>
<polygon fill="#000000" stroke="#000000" points="314.3353,-172.5001 324.3352,-169 314.3352,-165.5001 314.3353,-172.5001"/>
</g>
</g>
</svg>
