<?xml version="1.0" encoding="UTF-8" standalone="no"?>
<!DOCTYPE svg PUBLIC "-//W3C//DTD SVG 1.1//EN"
 "http://www.w3.org/Graphics/SVG/1.1/DTD/svg11.dtd">
<!-- Generated by graphviz version 2.40.1 (20161225.0304)
 -->
<!-- Title: dependencies Pages: 1 -->
<svg width="839pt" height="211pt"
 viewBox="0.00 0.00 839.00 211.00" xmlns="http://www.w3.org/2000/svg" xmlns:xlink="http://www.w3.org/1999/xlink">
<g id="graph0" class="graph" transform="scale(1 1) rotate(0) translate(4 207)">
<title>dependencies</title>
<polygon fill="#ffffff" stroke="transparent" points="-4,4 -4,-207 835,-207 835,4 -4,4"/>
<text text-anchor="start" x="394.5091" y="-42.4" font-family="sans-serif" font-weight="bold" font-size="14.00" fill="#000000">Legend</text>
<polygon fill="#ffffb3" stroke="transparent" points="181.5,-10 181.5,-30 201.5,-30 201.5,-10 181.5,-10"/>
<text text-anchor="start" x="205.129" y="-15.4" font-family="sans-serif" font-size="14.00" fill="#000000"> &#160;Declarations</text>
<polygon fill="#8dd3c7" stroke="transparent" points="294.5,-10 294.5,-30 314.5,-30 314.5,-10 294.5,-10"/>
<text text-anchor="start" x="318.2251" y="-15.4" font-family="sans-serif" font-size="14.00" fill="#000000"> &#160;Module</text>
<polygon fill="#80b1d3" stroke="transparent" points="380.5,-10 380.5,-30 400.5,-30 400.5,-10 380.5,-10"/>
<text text-anchor="start" x="404.2812" y="-15.4" font-family="sans-serif" font-size="14.00" fill="#000000"> &#160;Bootstrap</text>
<polygon fill="#fdb462" stroke="transparent" points="477.5,-10 477.5,-30 497.5,-30 497.5,-10 477.5,-10"/>
<text text-anchor="start" x="501.1732" y="-15.4" font-family="sans-serif" font-size="14.00" fill="#000000"> &#160;Providers</text>
<polygon fill="#fb8072" stroke="transparent" points="573.5,-10 573.5,-30 593.5,-30 593.5,-10 573.5,-10"/>
<text text-anchor="start" x="597.2258" y="-15.4" font-family="sans-serif" font-size="14.00" fill="#000000"> &#160;Exports</text>
<g id="clust1" class="cluster">
<title>cluster_CommandesModule</title>
<polygon fill="none" stroke="#000000" stroke-dasharray="1,5" points="8,-70 8,-195 823,-195 823,-70 8,-70"/>
</g>
<g id="clust2" class="cluster">
<title>cluster_CommandesModule_declarations</title>
<polygon fill="none" stroke="#000000" points="460,-78 460,-130 815,-130 815,-78 460,-78"/>
</g>
<g id="clust5" class="cluster">
<title>cluster_CommandesModule_imports</title>
<polygon fill="none" stroke="#000000" points="16,-78 16,-130 452,-130 452,-78 16,-78"/>
</g>
<!-- AllCommandesComponent -->
<g id="node1" class="node">
<title>AllCommandesComponent</title>
<polygon fill="#ffffb3" stroke="#000000" points="806.7119,-122 637.2881,-122 637.2881,-86 806.7119,-86 806.7119,-122"/>
<text text-anchor="middle" x="722" y="-99.8" font-family="Times,serif" font-size="14.00" fill="#000000">AllCommandesComponent</text>
</g>
<!-- CommandesModule -->
<g id="node3" class="node">
<title>CommandesModule</title>
<polygon fill="#8dd3c7" stroke="#000000" points="421.5422,-187 418.5422,-191 397.5422,-191 394.5422,-187 292.4578,-187 292.4578,-151 421.5422,-151 421.5422,-187"/>
<text text-anchor="middle" x="357" y="-164.8" font-family="Times,serif" font-size="14.00" fill="#000000">CommandesModule</text>
</g>
<!-- AllCommandesComponent&#45;&gt;CommandesModule -->
<g id="edge1" class="edge">
<title>AllCommandesComponent&#45;&gt;CommandesModule</title>
<path fill="none" stroke="#000000" d="M722,-122.2843C722,-143.3211 722,-175 722,-175 722,-175 431.8341,-175 431.8341,-175"/>
<polygon fill="#000000" stroke="#000000" points="431.8341,-171.5001 421.8341,-175 431.8341,-178.5001 431.8341,-171.5001"/>
</g>
<!-- CommandesComponent -->
<g id="node2" class="node">
<title>CommandesComponent</title>
<polygon fill="#ffffb3" stroke="#000000" points="619.8243,-122 468.1757,-122 468.1757,-86 619.8243,-86 619.8243,-122"/>
<text text-anchor="middle" x="544" y="-99.8" font-family="Times,serif" font-size="14.00" fill="#000000">CommandesComponent</text>
</g>
<!-- CommandesComponent&#45;&gt;CommandesModule -->
<g id="edge2" class="edge">
<title>CommandesComponent&#45;&gt;CommandesModule</title>
<path fill="none" stroke="#000000" d="M544,-122.0225C544,-139.3734 544,-163 544,-163 544,-163 431.6166,-163 431.6166,-163"/>
<polygon fill="#000000" stroke="#000000" points="431.6167,-159.5001 421.6166,-163 431.6166,-166.5001 431.6167,-159.5001"/>
</g>
<!-- CommandesRoutingModule -->
<g id="node4" class="node">
<title>CommandesRoutingModule</title>
<polygon fill="#8dd3c7" stroke="#000000" points="444.1595,-122 441.1595,-126 420.1595,-126 417.1595,-122 269.8405,-122 269.8405,-86 444.1595,-86 444.1595,-122"/>
<text text-anchor="middle" x="357" y="-99.8" font-family="Times,serif" font-size="14.00" fill="#000000">CommandesRoutingModule</text>
</g>
<!-- CommandesRoutingModule&#45;&gt;CommandesModule -->
<g id="edge3" class="edge">
<title>CommandesRoutingModule&#45;&gt;CommandesModule</title>
<path fill="none" stroke="#000000" d="M357,-122.1061C357,-122.1061 357,-140.991 357,-140.991"/>
<polygon fill="#000000" stroke="#000000" points="353.5001,-140.9909 357,-150.991 360.5001,-140.991 353.5001,-140.9909"/>
</g>
<!-- GestionModule -->
<g id="node5" class="node">
<title>GestionModule</title>
<polygon fill="#8dd3c7" stroke="#000000" points="251.5968,-122 248.5968,-126 227.5968,-126 224.5968,-122 148.4032,-122 148.4032,-86 251.5968,-86 251.5968,-122"/>
<text text-anchor="middle" x="200" y="-99.8" font-family="Times,serif" font-size="14.00" fill="#000000">GestionModule</text>
</g>
<!-- GestionModule&#45;&gt;CommandesModule -->
<g id="edge4" class="edge">
<title>GestionModule&#45;&gt;CommandesModule</title>
<path fill="none" stroke="#000000" d="M200,-122.0225C200,-139.3734 200,-163 200,-163 200,-163 282.2357,-163 282.2357,-163"/>
<polygon fill="#000000" stroke="#000000" points="282.2357,-166.5001 292.2357,-163 282.2356,-159.5001 282.2357,-166.5001"/>
</g>
<!-- MaterialModule -->
<g id="node6" class="node">
<title>MaterialModule</title>
<polygon fill="#8dd3c7" stroke="#000000" points="130.4706,-122 127.4706,-126 106.4706,-126 103.4706,-122 23.5294,-122 23.5294,-86 130.4706,-86 130.4706,-122"/>
<text text-anchor="middle" x="77" y="-99.8" font-family="Times,serif" font-size="14.00" fill="#000000">MaterialModule</text>
</g>
<!-- MaterialModule&#45;&gt;CommandesModule -->
<g id="edge5" class="edge">
<title>MaterialModule&#45;&gt;CommandesModule</title>
<path fill="none" stroke="#000000" d="M77,-122.2843C77,-143.3211 77,-175 77,-175 77,-175 282.4108,-175 282.4108,-175"/>
<polygon fill="#000000" stroke="#000000" points="282.4108,-178.5001 292.4108,-175 282.4107,-171.5001 282.4108,-178.5001"/>
</g>
</g>
</svg>
