<?xml version="1.0" encoding="UTF-8" standalone="no"?>
<!DOCTYPE svg PUBLIC "-//W3C//DTD SVG 1.1//EN"
 "http://www.w3.org/Graphics/SVG/1.1/DTD/svg11.dtd">
<!-- Generated by graphviz version 2.40.1 (20161225.0304)
 -->
<!-- Title: dependencies Pages: 1 -->
<svg width="3107pt" height="284pt"
 viewBox="0.00 0.00 3107.00 284.00" xmlns="http://www.w3.org/2000/svg" xmlns:xlink="http://www.w3.org/1999/xlink">
<g id="graph0" class="graph" transform="scale(1 1) rotate(0) translate(4 280)">
<title>dependencies</title>
<polygon fill="#ffffff" stroke="transparent" points="-4,4 -4,-280 3103,-280 3103,4 -4,4"/>
<text text-anchor="start" x="1528.5091" y="-42.4" font-family="sans-serif" font-weight="bold" font-size="14.00" fill="#000000">Legend</text>
<polygon fill="#ffffb3" stroke="transparent" points="1315.5,-10 1315.5,-30 1335.5,-30 1335.5,-10 1315.5,-10"/>
<text text-anchor="start" x="1339.129" y="-15.4" font-family="sans-serif" font-size="14.00" fill="#000000"> &#160;Declarations</text>
<polygon fill="#8dd3c7" stroke="transparent" points="1428.5,-10 1428.5,-30 1448.5,-30 1448.5,-10 1428.5,-10"/>
<text text-anchor="start" x="1452.2251" y="-15.4" font-family="sans-serif" font-size="14.00" fill="#000000"> &#160;Module</text>
<polygon fill="#80b1d3" stroke="transparent" points="1514.5,-10 1514.5,-30 1534.5,-30 1534.5,-10 1514.5,-10"/>
<text text-anchor="start" x="1538.2812" y="-15.4" font-family="sans-serif" font-size="14.00" fill="#000000"> &#160;Bootstrap</text>
<polygon fill="#fdb462" stroke="transparent" points="1611.5,-10 1611.5,-30 1631.5,-30 1631.5,-10 1611.5,-10"/>
<text text-anchor="start" x="1635.1732" y="-15.4" font-family="sans-serif" font-size="14.00" fill="#000000"> &#160;Providers</text>
<polygon fill="#fb8072" stroke="transparent" points="1707.5,-10 1707.5,-30 1727.5,-30 1727.5,-10 1707.5,-10"/>
<text text-anchor="start" x="1731.2258" y="-15.4" font-family="sans-serif" font-size="14.00" fill="#000000"> &#160;Exports</text>
<g id="clust1" class="cluster">
<title>cluster_AppModule</title>
<polygon fill="none" stroke="#000000" stroke-dasharray="1,5" points="8,-70 8,-268 3091,-268 3091,-70 8,-70"/>
</g>
<g id="clust2" class="cluster">
<title>cluster_AppModule_declarations</title>
<polygon fill="none" stroke="#000000" points="1536,-78 1536,-130 3083,-130 3083,-78 1536,-78"/>
</g>
<g id="clust13" class="cluster">
<title>cluster_AppModule_imports</title>
<polygon fill="none" stroke="#000000" points="517,-78 517,-130 1528,-130 1528,-78 517,-78"/>
</g>
<g id="clust15" class="cluster">
<title>cluster_AppModule_bootstrap</title>
<polygon fill="none" stroke="#000000" points="1394,-208 1394,-260 1518,-260 1518,-208 1394,-208"/>
</g>
<g id="clust16" class="cluster">
<title>cluster_AppModule_providers</title>
<polygon fill="none" stroke="#000000" points="16,-78 16,-130 509,-130 509,-78 16,-78"/>
</g>
<!-- AlertComponent -->
<g id="node1" class="node">
<title>AlertComponent</title>
<polygon fill="#ffffb3" stroke="#000000" points="3075.0954,-122 2964.9046,-122 2964.9046,-86 3075.0954,-86 3075.0954,-122"/>
<text text-anchor="middle" x="3020" y="-99.8" font-family="Times,serif" font-size="14.00" fill="#000000">AlertComponent</text>
</g>
<!-- AppModule -->
<g id="node11" class="node">
<title>AppModule</title>
<polygon fill="#8dd3c7" stroke="#000000" points="1497.6571,-187 1494.6571,-191 1473.6571,-191 1470.6571,-187 1414.3429,-187 1414.3429,-151 1497.6571,-151 1497.6571,-187"/>
<text text-anchor="middle" x="1456" y="-164.8" font-family="Times,serif" font-size="14.00" fill="#000000">AppModule</text>
</g>
<!-- AlertComponent&#45;&gt;AppModule -->
<g id="edge1" class="edge">
<title>AlertComponent&#45;&gt;AppModule</title>
<path fill="none" stroke="#000000" d="M3020,-122.1532C3020,-145.7566 3020,-184 3020,-184 3020,-184 1507.8332,-184 1507.8332,-184"/>
<polygon fill="#000000" stroke="#000000" points="1507.8333,-180.5001 1497.8332,-184 1507.8332,-187.5001 1507.8333,-180.5001"/>
</g>
<!-- AppComponent -->
<g id="node2" class="node">
<title>AppComponent</title>
<polygon fill="#ffffb3" stroke="#000000" points="2946.9399,-122 2841.0601,-122 2841.0601,-86 2946.9399,-86 2946.9399,-122"/>
<text text-anchor="middle" x="2894" y="-99.8" font-family="Times,serif" font-size="14.00" fill="#000000">AppComponent</text>
</g>
<!-- AppComponent&#45;&gt;AppModule -->
<g id="edge2" class="edge">
<title>AppComponent&#45;&gt;AppModule</title>
<path fill="none" stroke="#000000" d="M2894,-122.2479C2894,-145.0179 2894,-181 2894,-181 2894,-181 1507.871,-181 1507.871,-181"/>
<polygon fill="#000000" stroke="#000000" points="1507.871,-177.5001 1497.871,-181 1507.8709,-184.5001 1507.871,-177.5001"/>
</g>
<!-- ConfirmationDialogComponent -->
<g id="node3" class="node">
<title>ConfirmationDialogComponent</title>
<polygon fill="#ffffb3" stroke="#000000" points="2823.3696,-122 2628.6304,-122 2628.6304,-86 2823.3696,-86 2823.3696,-122"/>
<text text-anchor="middle" x="2726" y="-99.8" font-family="Times,serif" font-size="14.00" fill="#000000">ConfirmationDialogComponent</text>
</g>
<!-- ConfirmationDialogComponent&#45;&gt;AppModule -->
<g id="edge3" class="edge">
<title>ConfirmationDialogComponent&#45;&gt;AppModule</title>
<path fill="none" stroke="#000000" d="M2726,-122.2921C2726,-144.2057 2726,-178 2726,-178 2726,-178 1507.8934,-178 1507.8934,-178"/>
<polygon fill="#000000" stroke="#000000" points="1507.8935,-174.5001 1497.8934,-178 1507.8934,-181.5001 1507.8935,-174.5001"/>
</g>
<!-- ContactUsComponent -->
<g id="node4" class="node">
<title>ContactUsComponent</title>
<polygon fill="#ffffb3" stroke="#000000" points="2610.4313,-122 2469.5687,-122 2469.5687,-86 2610.4313,-86 2610.4313,-122"/>
<text text-anchor="middle" x="2540" y="-99.8" font-family="Times,serif" font-size="14.00" fill="#000000">ContactUsComponent</text>
</g>
<!-- ContactUsComponent&#45;&gt;AppModule -->
<g id="edge4" class="edge">
<title>ContactUsComponent&#45;&gt;AppModule</title>
<path fill="none" stroke="#000000" d="M2540,-122.0267C2540,-142.7672 2540,-174 2540,-174 2540,-174 1507.8299,-174 1507.8299,-174"/>
<polygon fill="#000000" stroke="#000000" points="1507.8299,-170.5001 1497.8299,-174 1507.8298,-177.5001 1507.8299,-170.5001"/>
</g>
<!-- LoginComponent -->
<g id="node5" class="node">
<title>LoginComponent</title>
<polygon fill="#ffffb3" stroke="#000000" points="2451.2758,-122 2336.7242,-122 2336.7242,-86 2451.2758,-86 2451.2758,-122"/>
<text text-anchor="middle" x="2394" y="-99.8" font-family="Times,serif" font-size="14.00" fill="#000000">LoginComponent</text>
</g>
<!-- LoginComponent&#45;&gt;AppModule -->
<g id="edge5" class="edge">
<title>LoginComponent&#45;&gt;AppModule</title>
<path fill="none" stroke="#000000" d="M2394,-122.308C2394,-142.1455 2394,-171 2394,-171 2394,-171 1507.8201,-171 1507.8201,-171"/>
<polygon fill="#000000" stroke="#000000" points="1507.8201,-167.5001 1497.8201,-171 1507.82,-174.5001 1507.8201,-167.5001"/>
</g>
<!-- NavigationComponent -->
<g id="node6" class="node">
<title>NavigationComponent</title>
<polygon fill="#ffffb3" stroke="#000000" points="2318.5407,-122 2175.4593,-122 2175.4593,-86 2318.5407,-86 2318.5407,-122"/>
<text text-anchor="middle" x="2247" y="-99.8" font-family="Times,serif" font-size="14.00" fill="#000000">NavigationComponent</text>
</g>
<!-- NavigationComponent&#45;&gt;AppModule -->
<g id="edge6" class="edge">
<title>NavigationComponent&#45;&gt;AppModule</title>
<path fill="none" stroke="#000000" d="M2247,-122.1686C2247,-141.0898 2247,-168 2247,-168 2247,-168 1507.6911,-168 1507.6911,-168"/>
<polygon fill="#000000" stroke="#000000" points="1507.6911,-164.5001 1497.6911,-168 1507.6911,-171.5001 1507.6911,-164.5001"/>
</g>
<!-- NosClientsComponent -->
<g id="node7" class="node">
<title>NosClientsComponent</title>
<polygon fill="#ffffb3" stroke="#000000" points="2156.5519,-122 2013.4481,-122 2013.4481,-86 2156.5519,-86 2156.5519,-122"/>
<text text-anchor="middle" x="2085" y="-99.8" font-family="Times,serif" font-size="14.00" fill="#000000">NosClientsComponent</text>
</g>
<!-- NosClientsComponent&#45;&gt;AppModule -->
<g id="edge7" class="edge">
<title>NosClientsComponent&#45;&gt;AppModule</title>
<path fill="none" stroke="#000000" d="M2085,-122.302C2085,-140.2699 2085,-165 2085,-165 2085,-165 1507.7576,-165 1507.7576,-165"/>
<polygon fill="#000000" stroke="#000000" points="1507.7576,-161.5001 1497.7576,-165 1507.7575,-168.5001 1507.7576,-161.5001"/>
</g>
<!-- NoservicesComponent -->
<g id="node8" class="node">
<title>NoservicesComponent</title>
<polygon fill="#ffffb3" stroke="#000000" points="1994.524,-122 1851.476,-122 1851.476,-86 1994.524,-86 1994.524,-122"/>
<text text-anchor="middle" x="1923" y="-99.8" font-family="Times,serif" font-size="14.00" fill="#000000">NoservicesComponent</text>
</g>
<!-- NoservicesComponent&#45;&gt;AppModule -->
<g id="edge8" class="edge">
<title>NoservicesComponent&#45;&gt;AppModule</title>
<path fill="none" stroke="#000000" d="M1923,-122.0352C1923,-138.7344 1923,-161 1923,-161 1923,-161 1507.8541,-161 1507.8541,-161"/>
<polygon fill="#000000" stroke="#000000" points="1507.8542,-157.5001 1497.8541,-161 1507.8541,-164.5001 1507.8542,-157.5001"/>
</g>
<!-- OfferComponent -->
<g id="node9" class="node">
<title>OfferComponent</title>
<polygon fill="#ffffb3" stroke="#000000" points="1832.636,-122 1721.364,-122 1721.364,-86 1832.636,-86 1832.636,-122"/>
<text text-anchor="middle" x="1777" y="-99.8" font-family="Times,serif" font-size="14.00" fill="#000000">OfferComponent</text>
</g>
<!-- OfferComponent&#45;&gt;AppModule -->
<g id="edge9" class="edge">
<title>OfferComponent&#45;&gt;AppModule</title>
<path fill="none" stroke="#000000" d="M1777,-122.2819C1777,-137.9478 1777,-158 1777,-158 1777,-158 1507.9651,-158 1507.9651,-158"/>
<polygon fill="#000000" stroke="#000000" points="1507.9652,-154.5001 1497.9651,-158 1507.9651,-161.5001 1507.9652,-154.5001"/>
</g>
<!-- PremierePageComponent -->
<g id="node10" class="node">
<title>PremierePageComponent</title>
<polygon fill="#ffffb3" stroke="#000000" points="1703.573,-122 1544.427,-122 1544.427,-86 1703.573,-86 1703.573,-122"/>
<text text-anchor="middle" x="1624" y="-99.8" font-family="Times,serif" font-size="14.00" fill="#000000">PremierePageComponent</text>
</g>
<!-- PremierePageComponent&#45;&gt;AppModule -->
<g id="edge10" class="edge">
<title>PremierePageComponent&#45;&gt;AppModule</title>
<path fill="none" stroke="#000000" d="M1624,-122.1243C1624,-136.7832 1624,-155 1624,-155 1624,-155 1507.9601,-155 1507.9601,-155"/>
<polygon fill="#000000" stroke="#000000" points="1507.9602,-151.5001 1497.9601,-155 1507.9601,-158.5001 1507.9602,-151.5001"/>
</g>
<!-- AppComponent  -->
<g id="node20" class="node">
<title>AppComponent </title>
<polygon fill="#80b1d3" stroke="#000000" points="1510.439,-252 1401.561,-252 1401.561,-216 1510.439,-216 1510.439,-252"/>
<text text-anchor="middle" x="1456" y="-229.8" font-family="Times,serif" font-size="14.00" fill="#000000">AppComponent </text>
</g>
<!-- AppModule&#45;&gt;AppComponent  -->
<g id="edge19" class="edge">
<title>AppModule&#45;&gt;AppComponent </title>
<path fill="none" stroke="#000000" stroke-dasharray="1,5" d="M1456,-187.1061C1456,-187.1061 1456,-205.991 1456,-205.991"/>
<polygon fill="#000000" stroke="#000000" points="1452.5001,-205.9909 1456,-215.991 1459.5001,-205.991 1452.5001,-205.9909"/>
</g>
<!-- AppRoutingModule -->
<g id="node12" class="node">
<title>AppRoutingModule</title>
<polygon fill="#8dd3c7" stroke="#000000" points="1520.2744,-122 1517.2744,-126 1496.2744,-126 1493.2744,-122 1391.7256,-122 1391.7256,-86 1520.2744,-86 1520.2744,-122"/>
<text text-anchor="middle" x="1456" y="-99.8" font-family="Times,serif" font-size="14.00" fill="#000000">AppRoutingModule</text>
</g>
<!-- AppRoutingModule&#45;&gt;AppModule -->
<g id="edge11" class="edge">
<title>AppRoutingModule&#45;&gt;AppModule</title>
<path fill="none" stroke="#000000" d="M1456,-122.1061C1456,-122.1061 1456,-140.991 1456,-140.991"/>
<polygon fill="#000000" stroke="#000000" points="1452.5001,-140.9909 1456,-150.991 1459.5001,-140.991 1452.5001,-140.9909"/>
</g>
<!-- CommandesModule -->
<g id="node13" class="node">
<title>CommandesModule</title>
<polygon fill="#8dd3c7" stroke="#000000" points="1373.5422,-122 1370.5422,-126 1349.5422,-126 1346.5422,-122 1244.4578,-122 1244.4578,-86 1373.5422,-86 1373.5422,-122"/>
<text text-anchor="middle" x="1309" y="-99.8" font-family="Times,serif" font-size="14.00" fill="#000000">CommandesModule</text>
</g>
<!-- CommandesModule&#45;&gt;AppModule -->
<g id="edge12" class="edge">
<title>CommandesModule&#45;&gt;AppModule</title>
<path fill="none" stroke="#000000" d="M1309,-122.1243C1309,-136.7832 1309,-155 1309,-155 1309,-155 1404.2689,-155 1404.2689,-155"/>
<polygon fill="#000000" stroke="#000000" points="1404.2689,-158.5001 1414.2689,-155 1404.2689,-151.5001 1404.2689,-158.5001"/>
</g>
<!-- GestionModule -->
<g id="node14" class="node">
<title>GestionModule</title>
<polygon fill="#8dd3c7" stroke="#000000" points="1226.5968,-122 1223.5968,-126 1202.5968,-126 1199.5968,-122 1123.4032,-122 1123.4032,-86 1226.5968,-86 1226.5968,-122"/>
<text text-anchor="middle" x="1175" y="-99.8" font-family="Times,serif" font-size="14.00" fill="#000000">GestionModule</text>
</g>
<!-- GestionModule&#45;&gt;AppModule -->
<g id="edge13" class="edge">
<title>GestionModule&#45;&gt;AppModule</title>
<path fill="none" stroke="#000000" d="M1175,-122.2819C1175,-137.9478 1175,-158 1175,-158 1175,-158 1404.2349,-158 1404.2349,-158"/>
<polygon fill="#000000" stroke="#000000" points="1404.2349,-161.5001 1414.2349,-158 1404.2348,-154.5001 1404.2349,-161.5001"/>
</g>
<!-- MaterialModule -->
<g id="node15" class="node">
<title>MaterialModule</title>
<polygon fill="#8dd3c7" stroke="#000000" points="1105.4706,-122 1102.4706,-126 1081.4706,-126 1078.4706,-122 998.5294,-122 998.5294,-86 1105.4706,-86 1105.4706,-122"/>
<text text-anchor="middle" x="1052" y="-99.8" font-family="Times,serif" font-size="14.00" fill="#000000">MaterialModule</text>
</g>
<!-- MaterialModule&#45;&gt;AppModule -->
<g id="edge14" class="edge">
<title>MaterialModule&#45;&gt;AppModule</title>
<path fill="none" stroke="#000000" d="M1052,-122.0352C1052,-138.7344 1052,-161 1052,-161 1052,-161 1404.2866,-161 1404.2866,-161"/>
<polygon fill="#000000" stroke="#000000" points="1404.2866,-164.5001 1414.2866,-161 1404.2865,-157.5001 1404.2866,-164.5001"/>
</g>
<!-- ProfileModule -->
<g id="node16" class="node">
<title>ProfileModule</title>
<polygon fill="#8dd3c7" stroke="#000000" points="980.65,-122 977.65,-126 956.65,-126 953.65,-122 883.35,-122 883.35,-86 980.65,-86 980.65,-122"/>
<text text-anchor="middle" x="932" y="-99.8" font-family="Times,serif" font-size="14.00" fill="#000000">ProfileModule</text>
</g>
<!-- ProfileModule&#45;&gt;AppModule -->
<g id="edge15" class="edge">
<title>ProfileModule&#45;&gt;AppModule</title>
<path fill="none" stroke="#000000" d="M932,-122.302C932,-140.2699 932,-165 932,-165 932,-165 1404.0047,-165 1404.0047,-165"/>
<polygon fill="#000000" stroke="#000000" points="1404.0047,-168.5001 1414.0047,-165 1404.0046,-161.5001 1404.0047,-168.5001"/>
</g>
<!-- SimulationModule -->
<g id="node17" class="node">
<title>SimulationModule</title>
<polygon fill="#8dd3c7" stroke="#000000" points="865.5,-122 862.5,-126 841.5,-126 838.5,-122 744.5,-122 744.5,-86 865.5,-86 865.5,-122"/>
<text text-anchor="middle" x="805" y="-99.8" font-family="Times,serif" font-size="14.00" fill="#000000">SimulationModule</text>
</g>
<!-- SimulationModule&#45;&gt;AppModule -->
<g id="edge16" class="edge">
<title>SimulationModule&#45;&gt;AppModule</title>
<path fill="none" stroke="#000000" d="M805,-122.1686C805,-141.0898 805,-168 805,-168 805,-168 1404.2867,-168 1404.2867,-168"/>
<polygon fill="#000000" stroke="#000000" points="1404.2867,-171.5001 1414.2867,-168 1404.2867,-164.5001 1404.2867,-171.5001"/>
</g>
<!-- StockModule -->
<g id="node18" class="node">
<title>StockModule</title>
<polygon fill="#8dd3c7" stroke="#000000" points="726.9387,-122 723.9387,-126 702.9387,-126 699.9387,-122 635.0613,-122 635.0613,-86 726.9387,-86 726.9387,-122"/>
<text text-anchor="middle" x="681" y="-99.8" font-family="Times,serif" font-size="14.00" fill="#000000">StockModule</text>
</g>
<!-- StockModule&#45;&gt;AppModule -->
<g id="edge17" class="edge">
<title>StockModule&#45;&gt;AppModule</title>
<path fill="none" stroke="#000000" d="M681,-122.308C681,-142.1455 681,-171 681,-171 681,-171 1404.3326,-171 1404.3326,-171"/>
<polygon fill="#000000" stroke="#000000" points="1404.3327,-174.5001 1414.3326,-171 1404.3326,-167.5001 1404.3327,-174.5001"/>
</g>
<!-- TarifsModule -->
<g id="node19" class="node">
<title>TarifsModule</title>
<polygon fill="#8dd3c7" stroke="#000000" points="617.4734,-122 614.4734,-126 593.4734,-126 590.4734,-122 524.5266,-122 524.5266,-86 617.4734,-86 617.4734,-122"/>
<text text-anchor="middle" x="571" y="-99.8" font-family="Times,serif" font-size="14.00" fill="#000000">TarifsModule</text>
</g>
<!-- TarifsModule&#45;&gt;AppModule -->
<g id="edge18" class="edge">
<title>TarifsModule&#45;&gt;AppModule</title>
<path fill="none" stroke="#000000" d="M571,-122.0267C571,-142.7672 571,-174 571,-174 571,-174 1404.2063,-174 1404.2063,-174"/>
<polygon fill="#000000" stroke="#000000" points="1404.2063,-177.5001 1414.2063,-174 1404.2062,-170.5001 1404.2063,-177.5001"/>
</g>
<!-- CommandeService -->
<g id="node21" class="node">
<title>CommandeService</title>
<ellipse fill="#fdb462" stroke="#000000" cx="416" cy="-104" rx="84.5305" ry="18"/>
<text text-anchor="middle" x="416" y="-99.8" font-family="Times,serif" font-size="14.00" fill="#000000">CommandeService</text>
</g>
<!-- CommandeService&#45;&gt;AppModule -->
<g id="edge20" class="edge">
<title>CommandeService&#45;&gt;AppModule</title>
<path fill="none" stroke="#000000" d="M416,-122.2921C416,-144.2057 416,-178 416,-178 416,-178 1404.2664,-178 1404.2664,-178"/>
<polygon fill="#000000" stroke="#000000" points="1404.2664,-181.5001 1414.2664,-178 1404.2664,-174.5001 1404.2664,-181.5001"/>
</g>
<!-- ModeleService -->
<g id="node22" class="node">
<title>ModeleService</title>
<ellipse fill="#fdb462" stroke="#000000" cx="244" cy="-104" rx="69.48" ry="18"/>
<text text-anchor="middle" x="244" y="-99.8" font-family="Times,serif" font-size="14.00" fill="#000000">ModeleService</text>
</g>
<!-- ModeleService&#45;&gt;AppModule -->
<g id="edge21" class="edge">
<title>ModeleService&#45;&gt;AppModule</title>
<path fill="none" stroke="#000000" d="M244,-122.2479C244,-145.0179 244,-181 244,-181 244,-181 1404.2802,-181 1404.2802,-181"/>
<polygon fill="#000000" stroke="#000000" points="1404.2803,-184.5001 1414.2802,-181 1404.2802,-177.5001 1404.2803,-184.5001"/>
</g>
<!-- PusherService -->
<g id="node23" class="node">
<title>PusherService</title>
<ellipse fill="#fdb462" stroke="#000000" cx="90" cy="-104" rx="66.0492" ry="18"/>
<text text-anchor="middle" x="90" y="-99.8" font-family="Times,serif" font-size="14.00" fill="#000000">PusherService</text>
</g>
<!-- PusherService&#45;&gt;AppModule -->
<g id="edge22" class="edge">
<title>PusherService&#45;&gt;AppModule</title>
<path fill="none" stroke="#000000" d="M90,-122.1532C90,-145.7566 90,-184 90,-184 90,-184 1403.9972,-184 1403.9972,-184"/>
<polygon fill="#000000" stroke="#000000" points="1403.9973,-187.5001 1413.9972,-184 1403.9972,-180.5001 1403.9973,-187.5001"/>
</g>
</g>
</svg>
